<?xml version="1.0" encoding="UTF-8"?><svg xmlns="http://www.w3.org/2000/svg" viewBox="0 0 641 233"><defs><style>.cls-1{stroke:#812d1f;}.cls-1,.cls-2{fill:#b33d25;stroke-miterlimit:10;}.cls-2{stroke:#6a2519;}.cls-3{fill:#fff;font-family:STXihei, STXihei;font-size:48px;}</style></defs><g id="Layer_2"><path class="cls-2" d="M177.15,142.49s-13.09-17.33-9.5-35.67c0,0,3.33-12.33,17-13,0,0,4.17-1.33,11,3.33,0,0-.67-13-16.83-14.83,0,0-14.5-.5-17.33,14,0,0-14.75-9.22-24.5,1.67s0,23.83,0,23.83c0,0,9.33,14.5,40.17,20.67Z"/><path class="cls-1" d="M200.35,110.18s-.67-13.5-15.5-13.33-14.5,17.17-14.5,17.17c0,0-.5,16.83,15,35.17l1.17,1s21.21-4.65,32.17-14.33c8.67-7.67,7.33-17,7.33-17,0,0-.83-12.17-14.33-12.67,0,0-7,0-11.33,4Z"/></g><g id="mix_n_match"><text class="cls-3" transform="translate(243.1 133.28)"><tspan x="0" y="0">mix n match</tspan></text></g></svg>